
<svg width="15.997px" height="12.001px" viewBox="0 0 15.997 12.001" version="1.1" xmlns="http://www.w3.org/2000/svg" xmlns:xlink="http://www.w3.org/1999/xlink">
    <g id="Page-1" stroke="none" stroke-width="1" fill="none" fill-rule="evenodd">
        <g id="Cursors/Resize-(Double)/West-East" fill-rule="nonzero">
            <g id="Cursors-/-Resize-(Double)-/-West-East" transform="translate(0, -0.9917)">
                <path d="M0,6.9907 L0,6.9957 L5.997,12.9917 L5.998,8.9927 L7.997,8.9927 L10.017,8.9927 L10.017,12.9927 L15.997,6.9917 L10.017,0.9927 L10.018,5.0117 L7.997,5.0137 L5.997,5.0137 L5.998,0.9917 L0,6.9907 Z M1.411,6.9937 L4.998,3.4057 L4.997,5.9927 L8.497,5.9927 L11.018,5.9927 L11.018,3.4077 L14.583,6.9937 L11.019,10.5787 L11.018,7.9937 L8.497,7.9937 L4.998,7.9927 L4.997,10.5787 L1.411,6.9937 Z" id="Arrows-Outline" fill="#FFFFFF"></path>
                <polygon id="Arrows" fill="#000000" points="8.4971 7.9932 11.0181 7.9932 11.0181 10.5792 14.5831 6.9932 11.0181 3.4082 11.0181 6.0132 8.4971 6.0132 4.9971 6.0132 4.9971 3.4062 1.4111 6.9932 4.9971 10.5792 4.9971 7.9922"></polygon>
            </g>
        </g>
    </g>
</svg>