<svg width="1024" height="1024" viewBox="0 0 1024 1024" fill="none" xmlns="http://www.w3.org/2000/svg">
<g clip-path="url(#clip0_0_264)">
<g filter="url(#filter0_d_0_264)">
<mask id="mask0_0_264" style="mask-type:alpha" maskUnits="userSpaceOnUse" x="37" y="67" width="859" height="858">
<rect x="21.3704" y="117.829" width="826.333" height="826.333" rx="184.521" transform="rotate(-4.63882 21.3704 117.829)" fill="url(#paint0_linear_0_264)"/>
</mask>
<g mask="url(#mask0_0_264)">
<rect x="21.3704" y="117.829" width="826.333" height="826.333" rx="184.521" transform="rotate(-4.63882 21.3704 117.829)" fill="url(#paint1_linear_0_264)"/>
<g filter="url(#filter1_i_0_264)">
<path d="M405.416 528.518C396.066 353.283 422.813 252.856 473.165 81.1705L550.729 74.8769C653.732 66.5192 705.234 62.3404 746.202 79.1939C782.239 94.0186 812.658 119.871 833.098 153.047C856.336 190.762 860.515 242.264 868.873 345.267L887.948 580.36C896.306 683.363 900.485 734.864 883.631 775.832C868.806 811.869 842.954 842.288 809.778 862.728C772.063 885.966 720.561 890.145 617.559 898.503L603.965 899.606C559.222 794.575 543.277 697.268 532.41 563.329L453.227 569.754C437.571 571.024 429.744 571.659 423.417 568.995C417.954 566.694 413.14 562.487 410.128 557.381C406.641 551.468 406.233 543.818 405.416 528.518Z" fill="url(#paint2_linear_0_264)"/>
</g>
<g filter="url(#filter2_di_0_264)">
<path d="M373.195 531.132C363.844 355.897 390.591 255.47 440.943 83.7848L550.729 74.8768C653.732 66.5191 705.234 62.3402 746.202 79.1937C782.239 94.0185 812.657 119.871 833.098 153.047C856.336 190.762 860.515 242.264 868.872 345.267L887.948 580.36C896.306 683.362 900.484 734.864 883.631 775.832C868.806 811.869 842.954 842.288 809.778 862.728C772.063 885.966 720.561 890.145 617.558 898.503L571.743 902.22C527 797.189 511.056 699.882 500.188 565.943L421.005 572.368C405.35 573.638 397.522 574.273 391.196 571.609C385.732 569.309 380.918 565.101 377.907 559.995C374.42 554.082 374.011 546.432 373.195 531.132Z" fill="url(#paint3_linear_0_264)"/>
</g>
<mask id="mask1_0_264" style="mask-type:alpha" maskUnits="userSpaceOnUse" x="329" y="40" width="180" height="541">
<path d="M329.884 40.4776C404.408 34.4306 469.724 89.9427 475.771 164.467L508.618 569.284L373.679 580.232L329.884 40.4776Z" fill="#C4C4C4" style="fill:#C4C4C4;fill:color(display-p3 0.7686 0.7686 0.7686);fill-opacity:1;"/>
</mask>
<g mask="url(#mask1_0_264)">
<g filter="url(#filter3_i_0_264)">
<path d="M373.839 531.08C364.488 355.845 391.235 255.418 441.587 83.7325L550.73 74.8767C653.733 66.519 705.235 62.3402 746.203 79.1937C782.24 94.0184 812.659 119.871 833.099 153.047C856.337 190.762 860.516 242.263 868.874 345.266L887.949 580.359C896.307 683.362 900.486 734.864 883.632 775.832C868.807 811.869 842.955 842.288 809.779 862.728C772.064 885.966 720.562 890.145 617.559 898.503L572.387 902.168C527.645 797.137 511.7 699.83 500.832 565.891L421.649 572.316C405.994 573.586 398.166 574.221 391.84 571.557C386.376 569.256 381.562 565.049 378.551 559.943C375.064 554.03 374.656 546.38 373.839 531.08Z" fill="url(#paint4_linear_0_264)" fill-opacity="0.01"/>
</g>
</g>
<g filter="url(#filter4_diii_0_264)">
<path fill-rule="evenodd" clip-rule="evenodd" d="M308.974 689.889C314.604 682.879 324.851 681.76 331.861 687.39C376.839 723.515 424.739 736.732 497.475 728.118C569.757 719.558 617.673 691.003 654.012 646.246C659.68 639.266 669.932 638.202 676.912 643.869C683.892 649.536 684.957 659.789 679.289 666.769C637.371 718.398 581.615 750.941 501.304 760.452C421.447 769.909 364.395 755.281 311.472 712.775C304.462 707.145 303.344 696.898 308.974 689.889Z" fill="#464646" style="fill:#464646;fill:color(display-p3 0.2745 0.2745 0.2745);fill-opacity:1;"/>
</g>
<g filter="url(#filter5_diii_0_264)">
<path fill-rule="evenodd" clip-rule="evenodd" d="M186.64 411.852C193.894 417.164 204.08 415.59 209.393 408.336C216.114 399.158 222.31 393.982 227.884 390.91C233.424 387.857 239.213 386.405 245.862 385.866C252.138 385.357 256.768 385.965 261.756 388.02C267.193 390.26 273.943 394.588 283.754 403.07C290.556 408.95 300.837 408.203 306.717 401.401C312.597 394.599 311.849 384.319 305.048 378.439C294.126 368.997 284.294 362.091 274.159 357.916C263.575 353.555 253.644 352.568 243.229 353.413C233.189 354.228 222.678 356.603 212.169 362.395C201.694 368.168 192.091 376.854 183.124 389.099C177.812 396.353 179.386 406.54 186.64 411.852Z" fill="#464646" style="fill:#464646;fill:color(display-p3 0.2745 0.2745 0.2745);fill-opacity:1;"/>
</g>
<g filter="url(#filter6_diii_0_264)">
<path fill-rule="evenodd" clip-rule="evenodd" d="M522.339 394.541C529.593 399.853 539.78 398.279 545.092 391.025C551.813 381.847 558.01 376.672 563.584 373.6C569.124 370.547 574.912 369.095 581.562 368.555C587.838 368.046 592.467 368.655 597.456 370.71C602.892 372.95 609.642 377.278 619.454 385.76C626.256 391.64 636.536 390.892 642.416 384.091C648.296 377.289 647.549 367.008 640.747 361.128C629.826 351.687 619.993 344.78 609.858 340.605C599.275 336.245 589.343 335.258 578.929 336.103C568.889 336.917 558.377 339.293 547.869 345.084C537.393 350.857 527.791 359.543 518.823 371.788C513.511 379.042 515.085 389.229 522.339 394.541Z" fill="#464646" style="fill:#464646;fill:color(display-p3 0.2745 0.2745 0.2745);fill-opacity:1;"/>
</g>
<ellipse cx="203.257" cy="471.049" rx="58.9726" ry="27.2764" transform="rotate(-3.10373 203.257 471.049)" fill="#F7BD91" style="fill:#F7BD91;fill:color(display-p3 0.9686 0.7412 0.5686);fill-opacity:1;"/>
<ellipse cx="638.185" cy="453.364" rx="58.9726" ry="27.2764" transform="rotate(-6.31289 638.185 453.364)" fill="#F9C9A5" style="fill:#F9C9A5;fill:color(display-p3 0.9765 0.7882 0.6471);fill-opacity:1;"/>
</g>
</g>
<g filter="url(#filter7_dddddd_0_264)">
<path fill-rule="evenodd" clip-rule="evenodd" d="M968.323 162.489C970.402 195.668 962.628 227.187 947.521 254.191C963.724 261.254 975.493 276.925 976.674 295.778C978.355 322.599 957.975 345.703 931.155 347.384C910.19 348.698 891.496 336.533 883.53 318.349C862.349 330.253 838.225 337.693 812.352 339.314C720.453 345.073 641.286 275.243 635.527 183.344C629.768 91.4451 699.599 12.2778 791.498 6.51899C883.397 0.760155 962.564 70.5905 968.323 162.489ZM995.347 385.744C1009.6 384.851 1020.44 372.569 1019.54 358.312C1018.65 344.054 1006.37 333.221 992.112 334.114C977.855 335.008 967.021 347.29 967.915 361.547C968.808 375.804 981.09 386.637 995.347 385.744Z" fill="#E9E9E9" style="fill:#E9E9E9;fill:color(display-p3 0.9137 0.9137 0.9137);fill-opacity:1;"/>
<path d="M799.379 115.243C797.97 97.0674 783.008 92.6893 775.704 92.7722C761.176 92.4455 762.004 109.263 761.579 116.824C761.153 124.386 762.26 127.691 754.698 129.064C747.136 130.438 747.568 112.192 743.295 103.238C739.023 94.2835 723.27 92.3467 715.339 103.977C707.408 115.608 712.632 163.077 717.038 177.759C721.445 192.44 730.827 193.202 740.517 191.695C750.206 190.188 749.889 177.949 750.252 169.379C750.615 160.809 751.93 156.678 757.006 156.923C762.082 157.167 764.794 168.131 765.117 173.284C765.44 178.437 773.312 192.788 788.462 188.69C803.613 184.592 801.14 137.962 799.379 115.243Z" fill="#808080" style="fill:#808080;fill:color(display-p3 0.5020 0.5020 0.5020);fill-opacity:1;"/>
<path d="M801.631 211.206C800.816 201.298 792.194 197.785 787.985 197.267C777.411 196.232 774.373 207.094 774.736 212.891C775.099 218.689 772.518 223.944 768.399 225.657C764.279 227.37 763.997 218.253 763.659 214.151C763.321 210.05 760.492 203.598 749.092 200.998C737.692 198.398 735.526 214.136 735.896 234.242C736.267 254.348 742.273 265.047 749.692 271.211C757.112 277.375 763.526 264.927 765.498 260.277C767.471 255.626 766.508 246.713 771.233 244.719C775.959 242.726 776.862 257.139 780.401 263.304C783.94 269.469 788.047 271.798 797.448 265.712C806.848 259.626 802.65 223.592 801.631 211.206Z" fill="#808080" style="fill:#808080;fill:color(display-p3 0.5020 0.5020 0.5020);fill-opacity:1;"/>
<path fill-rule="evenodd" clip-rule="evenodd" d="M833.292 100.072C839.646 94.3884 854.878 87.7657 864.974 106.746C877.595 130.472 888.999 163.496 888.083 174.013C887.168 184.529 883.339 191.629 872.269 189.061C866.959 187.83 863.574 183.864 860.415 180.162C856.988 176.147 853.826 172.444 848.763 172.878C846.299 173.089 844.206 173.126 842.358 173.158C836.907 173.254 833.588 173.312 829.16 177.705C823.23 183.587 820.017 186.15 815.746 186.193C815.418 186.196 815.078 186.203 814.73 186.21C810.54 186.293 805.17 186.398 805.964 180.846C806.131 179.682 806.32 177.28 806.574 174.073C807.63 160.701 809.792 133.337 815.974 123.425C822.106 113.594 830.074 103.76 833.292 100.072ZM849.103 153.176C852.872 153.03 849.92 141.091 847.973 135.14C843.537 132.843 840.487 144.48 839.268 149.131C839.209 149.355 839.154 149.564 839.104 149.754C838.074 153.637 843.691 153.402 848.287 153.209C848.563 153.198 848.835 153.186 849.103 153.176Z" fill="#808080" style="fill:#808080;fill:color(display-p3 0.5020 0.5020 0.5020);fill-opacity:1;"/>
<path fill-rule="evenodd" clip-rule="evenodd" d="M856.487 204.212C863.449 216.817 877.371 244.859 877.367 256.177C877.362 270.324 865.99 272.007 861.667 270.095C860.17 269.433 858.834 267.928 857.355 266.263C854.562 263.118 851.262 259.401 845.414 259.715C843.86 259.798 842.397 259.82 841.002 259.84C834.369 259.938 829.262 260.013 823.13 266.609C815.708 274.592 809.433 265.688 810.764 257.44C810.948 256.3 811.126 254.863 811.335 253.181C812.634 242.691 815.117 222.649 827.619 205.374C839.225 189.337 851.701 197.917 856.487 204.212ZM843.544 242.775C848.033 241.136 845.977 233.865 844.388 230.434C842.203 229.116 839.159 234.723 838.163 236.887C837.167 239.052 837.933 244.824 843.544 242.775Z" fill="#808080" style="fill:#808080;fill:color(display-p3 0.5020 0.5020 0.5020);fill-opacity:1;"/>
</g>
</g>
<defs>
<filter id="filter0_d_0_264" x="-1.94546" y="39.7181" width="937.087" height="937.087" filterUnits="userSpaceOnUse" color-interpolation-filters="sRGB">
<feFlood flood-opacity="0" result="BackgroundImageFix"/>
<feColorMatrix in="SourceAlpha" type="matrix" values="0 0 0 0 0 0 0 0 0 0 0 0 0 0 0 0 0 0 127 0" result="hardAlpha"/>
<feOffset dy="12.034"/>
<feGaussianBlur stdDeviation="11.6579"/>
<feComposite in2="hardAlpha" operator="out"/>
<feColorMatrix type="matrix" values="0 0 0 0 0 0 0 0 0 0 0 0 0 0 0 0 0 0 0.25 0"/>
<feBlend mode="normal" in2="BackgroundImageFix" result="effect1_dropShadow_0_264"/>
<feBlend mode="normal" in="SourceGraphic" in2="effect1_dropShadow_0_264" result="shape"/>
</filter>
<filter id="filter1_i_0_264" x="399.56" y="67.5811" width="495.684" height="836.036" filterUnits="userSpaceOnUse" color-interpolation-filters="sRGB">
<feFlood flood-opacity="0" result="BackgroundImageFix"/>
<feBlend mode="normal" in="SourceGraphic" in2="BackgroundImageFix" result="shape"/>
<feColorMatrix in="SourceAlpha" type="matrix" values="0 0 0 0 0 0 0 0 0 0 0 0 0 0 0 0 0 0 127 0" result="hardAlpha"/>
<feOffset dx="-4.01132" dy="4.01132"/>
<feGaussianBlur stdDeviation="5.01415"/>
<feComposite in2="hardAlpha" operator="arithmetic" k2="-1" k3="1"/>
<feColorMatrix type="matrix" values="0 0 0 0 0.141176 0 0 0 0 0.301961 0 0 0 0 0.486275 0 0 0 0.69 0"/>
<feBlend mode="normal" in2="shape" result="effect1_innerShadow_0_264"/>
</filter>
<filter id="filter2_di_0_264" x="353.058" y="62.0935" width="546.197" height="856.589" filterUnits="userSpaceOnUse" color-interpolation-filters="sRGB">
<feFlood flood-opacity="0" result="BackgroundImageFix"/>
<feColorMatrix in="SourceAlpha" type="matrix" values="0 0 0 0 0 0 0 0 0 0 0 0 0 0 0 0 0 0 127 0" result="hardAlpha"/>
<feOffset dx="-7.31671" dy="5.48754"/>
<feGaussianBlur stdDeviation="5.48754"/>
<feComposite in2="hardAlpha" operator="out"/>
<feColorMatrix type="matrix" values="0 0 0 0 0.662745 0 0 0 0 0.360784 0 0 0 0 0.313726 0 0 0 1 0"/>
<feBlend mode="normal" in2="BackgroundImageFix" result="effect1_dropShadow_0_264"/>
<feBlend mode="normal" in="SourceGraphic" in2="effect1_dropShadow_0_264" result="shape"/>
<feColorMatrix in="SourceAlpha" type="matrix" values="0 0 0 0 0 0 0 0 0 0 0 0 0 0 0 0 0 0 127 0" result="hardAlpha"/>
<feOffset dx="6.01699"/>
<feGaussianBlur stdDeviation="2.00566"/>
<feComposite in2="hardAlpha" operator="arithmetic" k2="-1" k3="1"/>
<feColorMatrix type="matrix" values="0 0 0 0 1 0 0 0 0 1 0 0 0 0 1 0 0 0 0.5 0"/>
<feBlend mode="normal" in2="shape" result="effect2_innerShadow_0_264"/>
</filter>
<filter id="filter3_i_0_264" x="367.983" y="65.5752" width="527.262" height="836.593" filterUnits="userSpaceOnUse" color-interpolation-filters="sRGB">
<feFlood flood-opacity="0" result="BackgroundImageFix"/>
<feBlend mode="normal" in="SourceGraphic" in2="BackgroundImageFix" result="shape"/>
<feColorMatrix in="SourceAlpha" type="matrix" values="0 0 0 0 0 0 0 0 0 0 0 0 0 0 0 0 0 0 127 0" result="hardAlpha"/>
<feOffset dx="-4.01132" dy="-2.00566"/>
<feGaussianBlur stdDeviation="4.01132"/>
<feComposite in2="hardAlpha" operator="arithmetic" k2="-1" k3="1"/>
<feColorMatrix type="matrix" values="0 0 0 0 0 0 0 0 0 0 0 0 0 0 0 0 0 0 0.38 0"/>
<feBlend mode="normal" in2="shape" result="effect1_innerShadow_0_264"/>
</filter>
<filter id="filter4_diii_0_264" x="300.372" y="632.205" width="387.573" height="142.035" filterUnits="userSpaceOnUse" color-interpolation-filters="sRGB">
<feFlood flood-opacity="0" result="BackgroundImageFix"/>
<feColorMatrix in="SourceAlpha" type="matrix" values="0 0 0 0 0 0 0 0 0 0 0 0 0 0 0 0 0 0 127 0" result="hardAlpha"/>
<feOffset dy="2.00566"/>
<feGaussianBlur stdDeviation="2.50708"/>
<feComposite in2="hardAlpha" operator="out"/>
<feColorMatrix type="matrix" values="0 0 0 0 0 0 0 0 0 0 0 0 0 0 0 0 0 0 0.25 0"/>
<feBlend mode="normal" in2="BackgroundImageFix" result="effect1_dropShadow_0_264"/>
<feBlend mode="normal" in="SourceGraphic" in2="effect1_dropShadow_0_264" result="shape"/>
<feColorMatrix in="SourceAlpha" type="matrix" values="0 0 0 0 0 0 0 0 0 0 0 0 0 0 0 0 0 0 127 0" result="hardAlpha"/>
<feMorphology radius="11.0311" operator="dilate" in="SourceAlpha" result="effect2_innerShadow_0_264"/>
<feOffset dy="-5.01415"/>
<feGaussianBlur stdDeviation="11.5326"/>
<feComposite in2="hardAlpha" operator="arithmetic" k2="-1" k3="1"/>
<feColorMatrix type="matrix" values="0 0 0 0 0.478431 0 0 0 0 0.501961 0 0 0 0 0.509804 0 0 0 1 0"/>
<feBlend mode="normal" in2="shape" result="effect2_innerShadow_0_264"/>
<feColorMatrix in="SourceAlpha" type="matrix" values="0 0 0 0 0 0 0 0 0 0 0 0 0 0 0 0 0 0 127 0" result="hardAlpha"/>
<feMorphology radius="3.00849" operator="erode" in="SourceAlpha" result="effect3_innerShadow_0_264"/>
<feOffset dy="13.0368"/>
<feGaussianBlur stdDeviation="4.01132"/>
<feComposite in2="hardAlpha" operator="arithmetic" k2="-1" k3="1"/>
<feColorMatrix type="matrix" values="0 0 0 0 0 0 0 0 0 0 0 0 0 0 0 0 0 0 1 0"/>
<feBlend mode="normal" in2="effect2_innerShadow_0_264" result="effect3_innerShadow_0_264"/>
<feColorMatrix in="SourceAlpha" type="matrix" values="0 0 0 0 0 0 0 0 0 0 0 0 0 0 0 0 0 0 127 0" result="hardAlpha"/>
<feMorphology radius="3.00849" operator="erode" in="SourceAlpha" result="effect4_innerShadow_0_264"/>
<feOffset dy="-8.02265"/>
<feGaussianBlur stdDeviation="4.01132"/>
<feComposite in2="hardAlpha" operator="arithmetic" k2="-1" k3="1"/>
<feColorMatrix type="matrix" values="0 0 0 0 0 0 0 0 0 0 0 0 0 0 0 0 0 0 0.6 0"/>
<feBlend mode="normal" in2="effect3_innerShadow_0_264" result="effect4_innerShadow_0_264"/>
</filter>
<filter id="filter5_diii_0_264" x="174.963" y="345.115" width="140.732" height="80.9146" filterUnits="userSpaceOnUse" color-interpolation-filters="sRGB">
<feFlood flood-opacity="0" result="BackgroundImageFix"/>
<feColorMatrix in="SourceAlpha" type="matrix" values="0 0 0 0 0 0 0 0 0 0 0 0 0 0 0 0 0 0 127 0" result="hardAlpha"/>
<feOffset dy="2.00566"/>
<feGaussianBlur stdDeviation="2.50708"/>
<feComposite in2="hardAlpha" operator="out"/>
<feColorMatrix type="matrix" values="0 0 0 0 0 0 0 0 0 0 0 0 0 0 0 0 0 0 0.25 0"/>
<feBlend mode="normal" in2="BackgroundImageFix" result="effect1_dropShadow_0_264"/>
<feBlend mode="normal" in="SourceGraphic" in2="effect1_dropShadow_0_264" result="shape"/>
<feColorMatrix in="SourceAlpha" type="matrix" values="0 0 0 0 0 0 0 0 0 0 0 0 0 0 0 0 0 0 127 0" result="hardAlpha"/>
<feMorphology radius="11.0311" operator="dilate" in="SourceAlpha" result="effect2_innerShadow_0_264"/>
<feOffset dy="-5.01416"/>
<feGaussianBlur stdDeviation="11.5326"/>
<feComposite in2="hardAlpha" operator="arithmetic" k2="-1" k3="1"/>
<feColorMatrix type="matrix" values="0 0 0 0 0.478431 0 0 0 0 0.501961 0 0 0 0 0.509804 0 0 0 1 0"/>
<feBlend mode="normal" in2="shape" result="effect2_innerShadow_0_264"/>
<feColorMatrix in="SourceAlpha" type="matrix" values="0 0 0 0 0 0 0 0 0 0 0 0 0 0 0 0 0 0 127 0" result="hardAlpha"/>
<feMorphology radius="3.00849" operator="erode" in="SourceAlpha" result="effect3_innerShadow_0_264"/>
<feOffset dy="13.0368"/>
<feGaussianBlur stdDeviation="4.01133"/>
<feComposite in2="hardAlpha" operator="arithmetic" k2="-1" k3="1"/>
<feColorMatrix type="matrix" values="0 0 0 0 0 0 0 0 0 0 0 0 0 0 0 0 0 0 1 0"/>
<feBlend mode="normal" in2="effect2_innerShadow_0_264" result="effect3_innerShadow_0_264"/>
<feColorMatrix in="SourceAlpha" type="matrix" values="0 0 0 0 0 0 0 0 0 0 0 0 0 0 0 0 0 0 127 0" result="hardAlpha"/>
<feMorphology radius="3.00849" operator="erode" in="SourceAlpha" result="effect4_innerShadow_0_264"/>
<feOffset dy="-8.02265"/>
<feGaussianBlur stdDeviation="4.01133"/>
<feComposite in2="hardAlpha" operator="arithmetic" k2="-1" k3="1"/>
<feColorMatrix type="matrix" values="0 0 0 0 0 0 0 0 0 0 0 0 0 0 0 0 0 0 0.6 0"/>
<feBlend mode="normal" in2="effect3_innerShadow_0_264" result="effect4_innerShadow_0_264"/>
</filter>
<filter id="filter6_diii_0_264" x="510.663" y="327.804" width="140.732" height="80.9146" filterUnits="userSpaceOnUse" color-interpolation-filters="sRGB">
<feFlood flood-opacity="0" result="BackgroundImageFix"/>
<feColorMatrix in="SourceAlpha" type="matrix" values="0 0 0 0 0 0 0 0 0 0 0 0 0 0 0 0 0 0 127 0" result="hardAlpha"/>
<feOffset dy="2.00566"/>
<feGaussianBlur stdDeviation="2.50708"/>
<feComposite in2="hardAlpha" operator="out"/>
<feColorMatrix type="matrix" values="0 0 0 0 0 0 0 0 0 0 0 0 0 0 0 0 0 0 0.25 0"/>
<feBlend mode="normal" in2="BackgroundImageFix" result="effect1_dropShadow_0_264"/>
<feBlend mode="normal" in="SourceGraphic" in2="effect1_dropShadow_0_264" result="shape"/>
<feColorMatrix in="SourceAlpha" type="matrix" values="0 0 0 0 0 0 0 0 0 0 0 0 0 0 0 0 0 0 127 0" result="hardAlpha"/>
<feMorphology radius="11.0311" operator="dilate" in="SourceAlpha" result="effect2_innerShadow_0_264"/>
<feOffset dy="-5.01416"/>
<feGaussianBlur stdDeviation="11.5326"/>
<feComposite in2="hardAlpha" operator="arithmetic" k2="-1" k3="1"/>
<feColorMatrix type="matrix" values="0 0 0 0 0.478431 0 0 0 0 0.501961 0 0 0 0 0.509804 0 0 0 1 0"/>
<feBlend mode="normal" in2="shape" result="effect2_innerShadow_0_264"/>
<feColorMatrix in="SourceAlpha" type="matrix" values="0 0 0 0 0 0 0 0 0 0 0 0 0 0 0 0 0 0 127 0" result="hardAlpha"/>
<feMorphology radius="3.00849" operator="erode" in="SourceAlpha" result="effect3_innerShadow_0_264"/>
<feOffset dy="13.0368"/>
<feGaussianBlur stdDeviation="4.01133"/>
<feComposite in2="hardAlpha" operator="arithmetic" k2="-1" k3="1"/>
<feColorMatrix type="matrix" values="0 0 0 0 0 0 0 0 0 0 0 0 0 0 0 0 0 0 1 0"/>
<feBlend mode="normal" in2="effect2_innerShadow_0_264" result="effect3_innerShadow_0_264"/>
<feColorMatrix in="SourceAlpha" type="matrix" values="0 0 0 0 0 0 0 0 0 0 0 0 0 0 0 0 0 0 127 0" result="hardAlpha"/>
<feMorphology radius="3.00849" operator="erode" in="SourceAlpha" result="effect4_innerShadow_0_264"/>
<feOffset dy="-8.02265"/>
<feGaussianBlur stdDeviation="4.01133"/>
<feComposite in2="hardAlpha" operator="arithmetic" k2="-1" k3="1"/>
<feColorMatrix type="matrix" values="0 0 0 0 0 0 0 0 0 0 0 0 0 0 0 0 0 0 0.6 0"/>
<feBlend mode="normal" in2="effect3_innerShadow_0_264" result="effect4_innerShadow_0_264"/>
</filter>
<filter id="filter7_dddddd_0_264" x="555.195" y="-47.8131" width="544.401" height="539.609" filterUnits="userSpaceOnUse" color-interpolation-filters="sRGB">
<feFlood flood-opacity="0" result="BackgroundImageFix"/>
<feColorMatrix in="SourceAlpha" type="matrix" values="0 0 0 0 0 0 0 0 0 0 0 0 0 0 0 0 0 0 127 0" result="hardAlpha"/>
<feOffset dy="0.719487"/>
<feGaussianBlur stdDeviation="1.1069"/>
<feColorMatrix type="matrix" values="0 0 0 0 0 0 0 0 0 0 0 0 0 0 0 0 0 0 0.0196802 0"/>
<feBlend mode="normal" in2="BackgroundImageFix" result="effect1_dropShadow_0_264"/>
<feColorMatrix in="SourceAlpha" type="matrix" values="0 0 0 0 0 0 0 0 0 0 0 0 0 0 0 0 0 0 127 0" result="hardAlpha"/>
<feOffset dy="1.72903"/>
<feGaussianBlur stdDeviation="2.66004"/>
<feColorMatrix type="matrix" values="0 0 0 0 0 0 0 0 0 0 0 0 0 0 0 0 0 0 0.0282725 0"/>
<feBlend mode="normal" in2="effect1_dropShadow_0_264" result="effect2_dropShadow_0_264"/>
<feColorMatrix in="SourceAlpha" type="matrix" values="0 0 0 0 0 0 0 0 0 0 0 0 0 0 0 0 0 0 127 0" result="hardAlpha"/>
<feOffset dy="3.2556"/>
<feGaussianBlur stdDeviation="5.00862"/>
<feColorMatrix type="matrix" values="0 0 0 0 0 0 0 0 0 0 0 0 0 0 0 0 0 0 0.035 0"/>
<feBlend mode="normal" in2="effect2_dropShadow_0_264" result="effect3_dropShadow_0_264"/>
<feColorMatrix in="SourceAlpha" type="matrix" values="0 0 0 0 0 0 0 0 0 0 0 0 0 0 0 0 0 0 127 0" result="hardAlpha"/>
<feOffset dy="5.80744"/>
<feGaussianBlur stdDeviation="8.93452"/>
<feColorMatrix type="matrix" values="0 0 0 0 0 0 0 0 0 0 0 0 0 0 0 0 0 0 0.0417275 0"/>
<feBlend mode="normal" in2="effect3_dropShadow_0_264" result="effect4_dropShadow_0_264"/>
<feColorMatrix in="SourceAlpha" type="matrix" values="0 0 0 0 0 0 0 0 0 0 0 0 0 0 0 0 0 0 127 0" result="hardAlpha"/>
<feOffset dy="10.8622"/>
<feGaussianBlur stdDeviation="16.711"/>
<feColorMatrix type="matrix" values="0 0 0 0 0 0 0 0 0 0 0 0 0 0 0 0 0 0 0.0503198 0"/>
<feBlend mode="normal" in2="effect4_dropShadow_0_264" result="effect5_dropShadow_0_264"/>
<feColorMatrix in="SourceAlpha" type="matrix" values="0 0 0 0 0 0 0 0 0 0 0 0 0 0 0 0 0 0 127 0" result="hardAlpha"/>
<feOffset dy="26"/>
<feGaussianBlur stdDeviation="40"/>
<feColorMatrix type="matrix" values="0 0 0 0 0 0 0 0 0 0 0 0 0 0 0 0 0 0 0.07 0"/>
<feBlend mode="normal" in2="effect5_dropShadow_0_264" result="effect6_dropShadow_0_264"/>
<feBlend mode="normal" in="SourceGraphic" in2="effect6_dropShadow_0_264" result="shape"/>
</filter>
<linearGradient id="paint0_linear_0_264" x1="434.537" y1="117.829" x2="434.537" y2="944.162" gradientUnits="userSpaceOnUse">
<stop offset="0.0806791" stop-color="#5FC7F7" style="stop-color:#5FC7F7;stop-color:color(display-p3 0.3725 0.7804 0.9686);stop-opacity:1;"/>
<stop offset="1" stop-color="#386FEA" style="stop-color:#386FEA;stop-color:color(display-p3 0.2196 0.4353 0.9176);stop-opacity:1;"/>
</linearGradient>
<linearGradient id="paint1_linear_0_264" x1="434.537" y1="117.829" x2="434.537" y2="944.162" gradientUnits="userSpaceOnUse">
<stop offset="0.0806791" stop-color="#F9C3A1" style="stop-color:#F9C3A1;stop-color:color(display-p3 0.9765 0.7647 0.6314);stop-opacity:1;"/>
<stop offset="1" stop-color="#E49401" style="stop-color:#E49401;stop-color:color(display-p3 0.8941 0.5804 0.0039);stop-opacity:1;"/>
</linearGradient>
<linearGradient id="paint2_linear_0_264" x1="607.919" y1="78.2081" x2="674.105" y2="893.915" gradientUnits="userSpaceOnUse">
<stop offset="0.0806791" stop-color="#F9C3A1" style="stop-color:#F9C3A1;stop-color:color(display-p3 0.9765 0.7647 0.6314);stop-opacity:1;"/>
<stop offset="1" stop-color="#E49401" style="stop-color:#E49401;stop-color:color(display-p3 0.8941 0.5804 0.0039);stop-opacity:1;"/>
</linearGradient>
<linearGradient id="paint3_linear_0_264" x1="616.408" y1="11.2046" x2="673.933" y2="893.929" gradientUnits="userSpaceOnUse">
<stop stop-color="#FEDC79" style="stop-color:#FEDC79;stop-color:color(display-p3 0.9961 0.8627 0.4745);stop-opacity:1;"/>
<stop offset="0.692952" stop-color="#E4D9D7" style="stop-color:#E4D9D7;stop-color:color(display-p3 0.8941 0.8510 0.8431);stop-opacity:1;"/>
</linearGradient>
<linearGradient id="paint4_linear_0_264" x1="607.105" y1="70.3024" x2="673.934" y2="893.928" gradientUnits="userSpaceOnUse">
<stop stop-color="#EFF0F1" style="stop-color:#EFF0F1;stop-color:color(display-p3 0.9373 0.9412 0.9451);stop-opacity:1;"/>
<stop offset="1" stop-color="#D6DCE6" style="stop-color:#D6DCE6;stop-color:color(display-p3 0.8392 0.8627 0.9020);stop-opacity:1;"/>
</linearGradient>
<clipPath id="clip0_0_264">
<rect width="1024" height="1024" fill="white" style="fill:white;fill-opacity:1;"/>
</clipPath>
</defs>
</svg>
