
<svg width="15.9327891px" height="15.9357823px" viewBox="0 0 15.9327891 15.9357823" version="1.1" xmlns="http://www.w3.org/2000/svg" xmlns:xlink="http://www.w3.org/1999/xlink">
    <g id="Page-1" stroke="none" stroke-width="1" fill="none" fill-rule="evenodd">
        <g id="Cursors-/-Move" transform="translate(-0.015, -0.013)">
            <path d="M9.97732426,4.98866213 L10.9750567,4.98866213 L10.9750567,5.98639456 L9.97732426,5.98639456 L9.97732426,4.98866213 Z M10.9750567,10.9750567 L9.97732426,10.9750567 L9.97732426,9.97732426 L10.9750567,9.97732426 L10.9750567,10.9750567 Z M5.98639456,5.98639456 L4.98866213,5.98639456 L4.98866213,4.98866213 L5.98639456,4.98866213 L5.98639456,5.98639456 Z M5.98639456,10.9750567 L4.98866213,10.9750567 L4.98866213,9.97732426 L5.98639456,9.97732426 L5.98639456,10.9750567 Z M7.98185941,0.0129705215 L0.0149659864,7.98285714 L5.22512472,13.1920181 L7.98185941,15.9487528 L15.9477551,7.98185941 L7.98185941,0.0129705215 Z" id="Outline" fill="#FFFFFF"></path>
            <polygon id="Arrows" fill="#000000" points="11.9821678 7.00118821 11.9821678 5.1763356 14.5333696 7.97896599 11.9811701 10.7805986 11.9821678 8.97669841 8.96692063 8.97669841 8.96692063 11.9747846 10.7678277 11.9747846 7.96918821 14.5449433 5.16855329 11.9737868 6.99240816 11.9747846 6.99240816 8.97669841 3.99033107 8.97669841 3.9913288 10.7805986 1.425161 7.97896599 3.99033107 5.1763356 3.99033107 7.00118821 6.9844263 7.00118821 6.9844263 3.98993197 5.17952834 3.98993197 7.98215873 1.42575964 10.7827937 3.99092971 8.97989116 3.98993197 8.97989116 7.00118821"></polygon>
        </g>
    </g>
</svg>