<svg width="413" height="373" viewBox="0 0 413 373" fill="none" xmlns="http://www.w3.org/2000/svg">
<mask id="path-1-inside-1_1_16" fill="white">
<path fill-rule="evenodd" clip-rule="evenodd" d="M66.5763 0C29.8072 0 0 29.8072 0 66.5763V145.522V153.369V266.478C0 303.764 0 322.407 7.25639 336.649C13.6393 349.176 23.8242 359.361 36.3513 365.744C50.5928 373 69.2359 373 106.522 373H306.478C343.764 373 362.407 373 376.649 365.744C389.176 359.361 399.361 349.176 405.744 336.649C413 322.407 413 303.764 413 266.478V145.522C413 108.236 413 89.5928 405.744 75.3513C399.361 62.8242 389.176 52.6393 376.649 46.2564C362.407 39 343.764 39 306.478 39H261.793C227.43 39 194.417 0 160.054 0H66.5763Z"/>
</mask>
<path fill-rule="evenodd" clip-rule="evenodd" d="M66.5763 0C29.8072 0 0 29.8072 0 66.5763V145.522V153.369V266.478C0 303.764 0 322.407 7.25639 336.649C13.6393 349.176 23.8242 359.361 36.3513 365.744C50.5928 373 69.2359 373 106.522 373H306.478C343.764 373 362.407 373 376.649 365.744C389.176 359.361 399.361 349.176 405.744 336.649C413 322.407 413 303.764 413 266.478V145.522C413 108.236 413 89.5928 405.744 75.3513C399.361 62.8242 389.176 52.6393 376.649 46.2564C362.407 39 343.764 39 306.478 39H261.793C227.43 39 194.417 0 160.054 0H66.5763Z" fill="#D9D9D9"/>
<path fill-rule="evenodd" clip-rule="evenodd" d="M66.5763 0C29.8072 0 0 29.8072 0 66.5763V145.522V153.369V266.478C0 303.764 0 322.407 7.25639 336.649C13.6393 349.176 23.8242 359.361 36.3513 365.744C50.5928 373 69.2359 373 106.522 373H306.478C343.764 373 362.407 373 376.649 365.744C389.176 359.361 399.361 349.176 405.744 336.649C413 322.407 413 303.764 413 266.478V145.522C413 108.236 413 89.5928 405.744 75.3513C399.361 62.8242 389.176 52.6393 376.649 46.2564C362.407 39 343.764 39 306.478 39H261.793C227.43 39 194.417 0 160.054 0H66.5763Z" fill="url(#paint0_radial_1_16)"/>
<path d="M7.25639 336.649L9.62918 335.44L9.62918 335.44L7.25639 336.649ZM36.3513 365.744L35.1423 368.116H35.1423L36.3513 365.744ZM376.649 365.744L377.858 368.116V368.116L376.649 365.744ZM405.744 336.649L408.116 337.858V337.858L405.744 336.649ZM405.744 75.3513L408.116 74.1423V74.1423L405.744 75.3513ZM376.649 46.2564L375.44 48.6292H375.44L376.649 46.2564ZM2.66305 66.5763C2.66305 31.278 31.278 2.66305 66.5763 2.66305V-2.66305C28.3365 -2.66305 -2.66305 28.3365 -2.66305 66.5763H2.66305ZM2.66305 145.522V66.5763H-2.66305V145.522H2.66305ZM2.66305 153.369V145.522H-2.66305V153.369H2.66305ZM2.66305 266.478V153.369H-2.66305V266.478H2.66305ZM9.62918 335.44C6.22416 328.757 4.45485 320.925 3.56126 309.988C2.66512 299.02 2.66305 285.165 2.66305 266.478H-2.66305C-2.66305 285.077 -2.66512 299.187 -1.74716 310.422C-0.826657 321.688 1.03223 330.299 4.88359 337.858L9.62918 335.44ZM37.5603 363.371C25.5343 357.243 15.7568 347.466 9.62918 335.44L4.88359 337.858C11.5218 350.886 22.1141 361.478 35.1423 368.116L37.5603 363.371ZM106.522 370.337C87.8351 370.337 73.9799 370.335 63.0118 369.439C52.0747 368.545 44.243 366.776 37.5603 363.371L35.1423 368.116C42.701 371.968 51.3116 373.827 62.5781 374.747C73.8134 375.665 87.923 375.663 106.522 375.663V370.337ZM306.478 370.337H106.522V375.663H306.478V370.337ZM375.44 363.371C368.757 366.776 360.925 368.545 349.988 369.439C339.02 370.335 325.165 370.337 306.478 370.337V375.663C325.077 375.663 339.187 375.665 350.422 374.747C361.688 373.827 370.299 371.968 377.858 368.116L375.44 363.371ZM403.371 335.44C397.243 347.466 387.466 357.243 375.44 363.371L377.858 368.116C390.886 361.478 401.478 350.886 408.116 337.858L403.371 335.44ZM410.337 266.478C410.337 285.165 410.335 299.02 409.439 309.988C408.545 320.925 406.776 328.757 403.371 335.44L408.116 337.858C411.968 330.299 413.827 321.688 414.747 310.422C415.665 299.187 415.663 285.077 415.663 266.478H410.337ZM410.337 145.522V266.478H415.663V145.522H410.337ZM403.371 76.5603C406.776 83.243 408.545 91.0747 409.439 102.012C410.335 112.98 410.337 126.835 410.337 145.522H415.663C415.663 126.923 415.665 112.813 414.747 101.578C413.827 90.3116 411.968 81.701 408.116 74.1423L403.371 76.5603ZM375.44 48.6292C387.466 54.7568 397.243 64.5342 403.371 76.5603L408.116 74.1423C401.478 61.1141 390.886 50.5218 377.858 43.8836L375.44 48.6292ZM306.478 41.6631C325.165 41.6631 339.02 41.6651 349.988 42.5613C360.925 43.4548 368.757 45.2242 375.44 48.6292L377.858 43.8836C370.299 40.0322 361.688 38.1733 350.422 37.2528C339.187 36.3349 325.077 36.3369 306.478 36.3369V41.6631ZM261.793 41.6631H306.478V36.3369H261.793V41.6631ZM66.5763 2.66305H160.054V-2.66305H66.5763V2.66305ZM261.793 36.3369C245.468 36.3369 229.282 27.0498 212.258 17.1952C195.594 7.54976 178.092 -2.66305 160.054 -2.66305V2.66305C176.379 2.66305 192.565 11.9502 209.589 21.8048C226.253 31.4502 243.754 41.6631 261.793 41.6631V36.3369Z" fill="url(#paint1_linear_1_16)" mask="url(#path-1-inside-1_1_16)"/>
<path d="M7.25639 336.649L9.62918 335.44L9.62918 335.44L7.25639 336.649ZM36.3513 365.744L35.1423 368.116H35.1423L36.3513 365.744ZM376.649 365.744L377.858 368.116V368.116L376.649 365.744ZM405.744 336.649L408.116 337.858V337.858L405.744 336.649ZM405.744 75.3513L408.116 74.1423V74.1423L405.744 75.3513ZM376.649 46.2564L375.44 48.6292H375.44L376.649 46.2564ZM2.66305 66.5763C2.66305 31.278 31.278 2.66305 66.5763 2.66305V-2.66305C28.3365 -2.66305 -2.66305 28.3365 -2.66305 66.5763H2.66305ZM2.66305 145.522V66.5763H-2.66305V145.522H2.66305ZM2.66305 153.369V145.522H-2.66305V153.369H2.66305ZM2.66305 266.478V153.369H-2.66305V266.478H2.66305ZM9.62918 335.44C6.22416 328.757 4.45485 320.925 3.56126 309.988C2.66512 299.02 2.66305 285.165 2.66305 266.478H-2.66305C-2.66305 285.077 -2.66512 299.187 -1.74716 310.422C-0.826657 321.688 1.03223 330.299 4.88359 337.858L9.62918 335.44ZM37.5603 363.371C25.5343 357.243 15.7568 347.466 9.62918 335.44L4.88359 337.858C11.5218 350.886 22.1141 361.478 35.1423 368.116L37.5603 363.371ZM106.522 370.337C87.8351 370.337 73.9799 370.335 63.0118 369.439C52.0747 368.545 44.243 366.776 37.5603 363.371L35.1423 368.116C42.701 371.968 51.3116 373.827 62.5781 374.747C73.8134 375.665 87.923 375.663 106.522 375.663V370.337ZM306.478 370.337H106.522V375.663H306.478V370.337ZM375.44 363.371C368.757 366.776 360.925 368.545 349.988 369.439C339.02 370.335 325.165 370.337 306.478 370.337V375.663C325.077 375.663 339.187 375.665 350.422 374.747C361.688 373.827 370.299 371.968 377.858 368.116L375.44 363.371ZM403.371 335.44C397.243 347.466 387.466 357.243 375.44 363.371L377.858 368.116C390.886 361.478 401.478 350.886 408.116 337.858L403.371 335.44ZM410.337 266.478C410.337 285.165 410.335 299.02 409.439 309.988C408.545 320.925 406.776 328.757 403.371 335.44L408.116 337.858C411.968 330.299 413.827 321.688 414.747 310.422C415.665 299.187 415.663 285.077 415.663 266.478H410.337ZM410.337 145.522V266.478H415.663V145.522H410.337ZM403.371 76.5603C406.776 83.243 408.545 91.0747 409.439 102.012C410.335 112.98 410.337 126.835 410.337 145.522H415.663C415.663 126.923 415.665 112.813 414.747 101.578C413.827 90.3116 411.968 81.701 408.116 74.1423L403.371 76.5603ZM375.44 48.6292C387.466 54.7568 397.243 64.5342 403.371 76.5603L408.116 74.1423C401.478 61.1141 390.886 50.5218 377.858 43.8836L375.44 48.6292ZM306.478 41.6631C325.165 41.6631 339.02 41.6651 349.988 42.5613C360.925 43.4548 368.757 45.2242 375.44 48.6292L377.858 43.8836C370.299 40.0322 361.688 38.1733 350.422 37.2528C339.187 36.3349 325.077 36.3369 306.478 36.3369V41.6631ZM261.793 41.6631H306.478V36.3369H261.793V41.6631ZM66.5763 2.66305H160.054V-2.66305H66.5763V2.66305ZM261.793 36.3369C245.468 36.3369 229.282 27.0498 212.258 17.1952C195.594 7.54976 178.092 -2.66305 160.054 -2.66305V2.66305C176.379 2.66305 192.565 11.9502 209.589 21.8048C226.253 31.4502 243.754 41.6631 261.793 41.6631V36.3369Z" fill="url(#paint2_linear_1_16)" mask="url(#path-1-inside-1_1_16)"/>
<g filter="url(#filter0_f_1_16)">
<rect y="93" width="413" height="280" rx="66.5763" fill="black" fill-opacity="0.32"/>
</g>
<path d="M-5.45393e-05 200C-5.45393e-05 162.663 -0.260427 143.261 6.99995 129C13.3863 116.456 23.4659 106.392 35.9999 100C50.2492 92.7338 69.6932 93 107 93H306C343.307 93 362.751 92.7338 377 100C389.534 106.392 399.614 116.456 406 129C413.26 143.261 413 162.663 413 200V266C413 303.337 413.26 322.739 406 337C399.614 349.544 389.534 359.608 377 366C362.751 373.266 343.307 373 306 373H107C69.6932 373 50.2492 373.266 35.9999 366C23.4659 359.608 13.3863 349.544 6.99995 337C-0.260427 322.739 -5.45393e-05 303.337 -5.45393e-05 266V200Z" fill="url(#paint3_radial_1_16)"/>
<path d="M107 94.3318H306C324.68 94.3318 338.804 94.2662 350.048 95.1032C361.28 95.9395 369.5 97.6699 376.395 101.186C388.68 107.451 398.555 117.312 404.813 129.604C408.327 136.506 410.057 144.719 410.894 155.945C411.732 167.183 411.669 181.305 411.669 200V266C411.669 284.694 411.732 298.816 410.894 310.054C410.057 321.281 408.327 329.494 404.813 336.396C398.555 348.689 388.68 358.55 376.395 364.814C369.5 368.331 361.28 370.061 350.048 370.897C338.804 371.734 324.679 371.669 306 371.669H107C88.3201 371.669 74.1951 371.734 62.9519 370.897C51.7204 370.061 43.5008 368.33 36.6052 364.814C24.3209 358.55 14.4447 348.689 8.18628 336.396C4.67234 329.494 2.94217 321.281 2.10522 310.054C1.26743 298.816 1.33179 284.694 1.33179 266V200C1.33179 181.305 1.26742 167.183 2.10522 155.945C2.94217 144.719 4.67245 136.506 8.18628 129.604C14.4447 117.312 24.3208 107.451 36.6052 101.186C43.5008 97.67 51.7203 95.9395 62.9519 95.1032C74.1951 94.2662 88.3201 94.3318 107 94.3318Z" stroke="url(#paint4_linear_1_16)" stroke-width="2.66305"/>
<defs>
<filter id="filter0_f_1_16" x="-79.8916" y="13.1084" width="572.783" height="439.783" filterUnits="userSpaceOnUse" color-interpolation-filters="sRGB">
<feFlood flood-opacity="0" result="BackgroundImageFix"/>
<feBlend mode="normal" in="SourceGraphic" in2="BackgroundImageFix" result="shape"/>
<feGaussianBlur stdDeviation="39.9458" result="effect1_foregroundBlur_1_16"/>
</filter>
<radialGradient id="paint0_radial_1_16" cx="0" cy="0" r="1" gradientTransform="matrix(-399.677 -386.29 427.241 -412.931 413 373.414)" gradientUnits="userSpaceOnUse">
<stop stop-color="#3D97F0"/>
<stop offset="1" stop-color="#5EB5F8"/>
</radialGradient>
<linearGradient id="paint1_linear_1_16" x1="0" y1="0" x2="399.156" y2="406.328" gradientUnits="userSpaceOnUse">
<stop offset="0.508799" stop-color="#A8D4FC"/>
<stop offset="1" stop-color="#3A82C9"/>
</linearGradient>
<linearGradient id="paint2_linear_1_16" x1="0" y1="0" x2="461.525" y2="318.701" gradientUnits="userSpaceOnUse">
<stop offset="0.228092" stop-color="#A8D4FC"/>
<stop offset="0.99027" stop-color="#4A97F2"/>
</linearGradient>
<radialGradient id="paint3_radial_1_16" cx="0" cy="0" r="1" gradientTransform="matrix(-413.002 -280.002 413.002 -467.157 413.001 373.001)" gradientUnits="userSpaceOnUse">
<stop stop-color="#3D97F0"/>
<stop offset="1" stop-color="#6BB8F8"/>
<stop offset="1" stop-color="#6BB8F8"/>
</radialGradient>
<linearGradient id="paint4_linear_1_16" x1="-0.0012207" y1="92.9987" x2="368.816" y2="432.647" gradientUnits="userSpaceOnUse">
<stop offset="0.228092" stop-color="#A8D4FC"/>
<stop offset="0.946844" stop-color="#4A97F2"/>
</linearGradient>
</defs>
</svg>
